# xmcd
#
# Track frame offsets:
#	150
#	13260
#	28972
#	43703
#	58987
#	72049
#	88057
#	103994
#	117520
#	133661
#	150358
#	169073
#	188756
#	203780
#	217995
#
# Disc length: 3130 seconds
# Revision: 0
# Processed by: cddbd v1.5.2PL0 Copyright (c) Steve Scherf et al.
# Submitted via: dBpowerAMP V12.0
#
DISCID=da0c380f
DTITLE=Five Finger Death Punch - War Is the Answer
DYEAR=2009
DGENRE=Metal
TTITLE0=Dying Breed
TTITLE1=Hard to See
TTITLE2=Bulletproof
TTITLE3=No One Gets Left Behind
TTITLE4=Crossing Over
TTITLE5=Burn It Down
TTITLE6=Far from Home
TTITLE7=Falling in Hate
TTITLE8=My Own Hell
TTITLE9=Walk Away
TTITLE10=Canto 34
TTITLE11=Bad Company
TTITLE12=War Is the Answer
TTITLE13=Succubus
TTITLE14=Undone
EXTD=
EXTT0=
EXTT1=
EXTT2=
EXTT3=
EXTT4=
EXTT5=
EXTT6=
EXTT7=
EXTT8=
EXTT9=
EXTT10=
EXTT11=
EXTT12=
EXTT13=
EXTT14=
PLAYORDER=
